<svg width="28" height="33" viewBox="0 0 28 33" fill="none" xmlns="http://www.w3.org/2000/svg">
<path d="M7 7.1159V0L3.5 2.06065V4.13612L1.75 3.08356L1.73554 9.30997L0 8.27224V13.3275L2.71901 14.9434L0 16.5741L0.752066 17.0189L0 17.4636L3.5 19.5391L5.23554 18.5162V22.6523L7 21.6146L12.2645 24.7278L14 23.69V18.6348L8.76446 15.5364V13.4609L5.26446 11.3854V8.15364L7 7.1159Z" fill="#DB7543"/>
<path d="M5.23554 17.6119V18.5162L3.5 19.5391L0 17.4636L0.752066 17.0189L3.5 18.6496L5.23554 17.6119Z" fill="#763A30"/>
<path d="M3.47107 14.4987L2.71901 14.9434L0 13.3275V12.438L3.47107 14.4987Z" fill="#763A30"/>
<path d="M5.26446 7.2345V8.15364L7 7.1159V6.22641L5.26446 7.2345Z" fill="#763A30"/>
<path d="M12.25 23.8234L14 22.7857V23.69L12.2645 24.7278L7 21.6146L5.23554 22.6671V21.7628L7 20.7102L12.25 23.8234Z" fill="#763A30"/>
<path fill-rule="evenodd" clip-rule="evenodd" d="M14 31.0728L12.2355 32.1105V27.9596L14 26.9218V31.0728Z" fill="#DB7543"/>
<path d="M12.2355 33L14 31.9771V31.0728L12.2355 32.1105V33Z" fill="#763A30"/>
<path d="M7 31.9771L8.75 30.9394V30.035L7 31.0728V31.9771Z" fill="#763A30"/>
<path d="M8.75 27.9596L7 28.9973V31.0728L8.75 30.035V27.9596Z" fill="#DB7543"/>
<path d="M21 7.1159V0L24.5 2.06065V4.13612L26.25 3.08356L26.2645 9.30997L28 8.27224V13.3275L25.281 14.9434L28 16.5741L27.2479 17.0189L28 17.4636L24.5 19.5391L22.7645 18.5162V22.6523L21 21.6146L15.7355 24.7278L14 23.69V18.6348L19.2355 15.5364V13.4609L22.7355 11.3854V8.15364L21 7.1159Z" fill="#DB7543"/>
<path d="M22.7645 17.6119V18.5162L24.5 19.5391L28 17.4636L27.2479 17.0189L24.5 18.6496L22.7645 17.6119Z" fill="#763A30"/>
<path d="M24.5289 14.4987L25.281 14.9434L28 13.3275V12.438L24.5289 14.4987Z" fill="#763A30"/>
<path d="M22.7355 7.2345V8.15364L21 7.1159V6.22641L22.7355 7.2345Z" fill="#763A30"/>
<path d="M15.75 23.8234L14 22.7857V23.69L15.7355 24.7278L21 21.6146L22.7645 22.6671V21.7628L21 20.7102L15.75 23.8234Z" fill="#763A30"/>
<path fill-rule="evenodd" clip-rule="evenodd" d="M14 31.0728L15.7645 32.1105V27.9596L14 26.9218V31.0728Z" fill="#DB7543"/>
<path d="M15.7645 33L14 31.9771V31.0728L15.7645 32.1105V33Z" fill="#763A30"/>
<path d="M21 31.9771L19.25 30.9394V30.035L21 31.0728V31.9771Z" fill="#763A30"/>
<path d="M19.25 27.9596L21 28.9973V31.0728L19.25 30.035V27.9596Z" fill="#DB7543"/>
<path d="M12.25 14.3652L15.75 12.2898V11.4003L12.25 13.4757V14.3652Z" fill="#763A30"/>
<path d="M15.75 9.3248L12.25 11.3854V13.4757L15.75 11.4003V9.3248Z" fill="#DB7543"/>
</svg>
